<svg width="20" height="20" viewBox="0 0 20 20" fill="none" xmlns="http://www.w3.org/2000/svg">
<circle cx="10" cy="10" r="10" fill="#309EC0"/>
<path d="M13.7805 9.25978C13.5993 9.25978 13.4231 9.28152 13.2543 9.32227L12.3621 7.18119L13.136 6.92324C13.321 6.86159 13.4209 6.66171 13.3592 6.47679C13.2976 6.29189 13.0978 6.19187 12.9128 6.25359L11.7546 6.64067C11.5746 6.71566 11.4896 6.92227 11.5645 7.1022L11.7863 7.63441L8.6928 8.43869L8.37506 7.69742H8.86597C9.06089 7.69742 9.21891 7.5394 9.21891 7.34448C9.21891 7.14956 9.06089 6.99154 8.86597 6.99154H7.35381C7.15889 6.99154 7.00087 7.14956 7.00087 7.34448C7.00087 7.5394 7.15889 7.69742 7.35381 7.69742H7.60706L8.07699 8.79375L7.39294 9.59182C7.05139 9.38138 6.6495 9.25978 6.21972 9.25978C4.98284 9.25978 3.97656 10.266 3.97656 11.5029C3.97656 12.7398 4.98284 13.746 6.21969 13.746C7.33649 13.746 8.26517 12.9256 8.43496 11.8558H9.62202C9.73477 11.8558 9.84075 11.802 9.9072 11.7108L12.1838 8.5886L12.6029 9.59448C11.9639 9.9902 11.5373 10.6976 11.5373 11.5029C11.5373 12.7398 12.5436 13.746 13.7804 13.746C15.0173 13.746 16.0236 12.7398 16.0236 11.5029C16.0236 10.266 15.0173 9.25978 13.7805 9.25978ZM6.21969 13.0402C5.37207 13.0402 4.68244 12.3506 4.68244 11.5029C4.68244 10.6553 5.37207 9.96566 6.21969 9.96566C6.47386 9.96566 6.7136 10.028 6.92501 10.1377L5.95172 11.2732C5.862 11.3779 5.84143 11.5252 5.89903 11.6504C5.95663 11.7756 6.08186 11.8559 6.21969 11.8559H7.71557C7.55562 12.5339 6.94588 13.0402 6.21969 13.0402ZM6.98708 11.15L8.38689 9.51684L9.0868 11.15H6.98708ZM9.70219 10.7939L8.97404 9.09491L11.4012 8.46382L9.70219 10.7939ZM13.7805 13.0402C12.9328 13.0402 12.2432 12.3506 12.2432 11.5029C12.2432 10.9916 12.4944 10.5381 12.8796 10.2585L13.4547 11.6387C13.5296 11.8186 13.7363 11.9037 13.9162 11.8287C14.0961 11.7537 14.1812 11.5471 14.1063 11.3672L13.5309 9.98625C13.6122 9.97291 13.6955 9.96566 13.7805 9.96566C14.6281 9.96566 15.3177 10.6553 15.3177 11.5029C15.3177 12.3505 14.6281 13.0402 13.7805 13.0402Z" fill="white"/>
</svg>
