<svg width="50" height="50" viewBox="0 0 50 50" fill="none" xmlns="http://www.w3.org/2000/svg">
<path d="M32.2076 12.25C30.7791 12.2719 29.3817 12.6648 28.1565 13.3891C26.9314 14.1134 25.9219 15.1433 25.23 16.375C24.5381 15.1433 23.5287 14.1134 22.3035 13.3891C21.0784 12.6648 19.681 12.2719 18.2524 12.25C15.9751 12.3475 13.8295 13.3291 12.2844 14.9803C10.7392 16.6315 9.92019 18.8182 10.0061 21.0625C10.0061 26.7463 16.0779 32.9538 21.1703 37.1625C22.3073 38.1039 23.7449 38.62 25.23 38.62C26.7152 38.62 28.1527 38.1039 29.2897 37.1625C34.3821 32.9538 40.4539 26.7463 40.4539 21.0625C40.5399 18.8182 39.7208 16.6315 38.1757 14.9803C36.6306 13.3291 34.485 12.3475 32.2076 12.25ZM27.6595 35.25C26.9795 35.8142 26.119 36.1236 25.23 36.1236C24.341 36.1236 23.4806 35.8142 22.8005 35.25C16.2822 29.8612 12.5435 24.6913 12.5435 21.0625C12.4567 19.4809 13.0082 17.9297 14.0777 16.7471C15.1472 15.5646 16.6479 14.8467 18.2524 14.75C19.857 14.8467 21.3576 15.5646 22.4271 16.7471C23.4966 17.9297 24.0481 19.4809 23.9614 21.0625C23.9614 21.394 24.095 21.712 24.3329 21.9464C24.5709 22.1808 24.8936 22.3125 25.23 22.3125C25.5665 22.3125 25.8892 22.1808 26.1271 21.9464C26.365 21.712 26.4987 21.394 26.4987 21.0625C26.412 19.4809 26.9635 17.9297 28.0329 16.7471C29.1024 15.5646 30.6031 14.8467 32.2076 14.75C33.8122 14.8467 35.3129 15.5646 36.3823 16.7471C37.4518 17.9297 38.0033 19.4809 37.9166 21.0625C37.9166 24.6913 34.1779 29.8612 27.6595 35.245V35.25Z" fill="black"/>
</svg>
