<svg width="40" height="40" viewBox="0 0 40 40" fill="none" xmlns="http://www.w3.org/2000/svg">
<path d="M25.7661 9C24.6233 9.01751 23.5053 9.33185 22.5252 9.91127C21.5451 10.4907 20.7375 11.3147 20.184 12.3C19.6305 11.3147 18.8229 10.4907 17.8428 9.91127C16.8627 9.33185 15.7448 9.01751 14.6019 9C12.7801 9.07799 11.0636 9.86325 9.8275 11.1842C8.5914 12.5052 7.93615 14.2545 8.00491 16.05C8.00491 20.597 12.8623 25.563 16.9363 28.93C17.8459 29.6831 18.9959 30.096 20.184 30.096C21.3721 30.096 22.5222 29.6831 23.4318 28.93C27.5057 25.563 32.3631 20.597 32.3631 16.05C32.4319 14.2545 31.7766 12.5052 30.5405 11.1842C29.3044 9.86325 27.588 9.07799 25.7661 9ZM22.1276 27.4C21.5836 27.8514 20.8952 28.0989 20.184 28.0989C19.4728 28.0989 18.7845 27.8514 18.2404 27.4C13.0257 23.089 10.0348 18.953 10.0348 16.05C9.96538 14.7847 10.4066 13.5437 11.2622 12.5977C12.1178 11.6517 13.3183 11.0774 14.6019 11C15.8856 11.0774 17.0861 11.6517 17.9417 12.5977C18.7973 13.5437 19.2385 14.7847 19.1691 16.05C19.1691 16.3152 19.276 16.5696 19.4664 16.7571C19.6567 16.9446 19.9148 17.05 20.184 17.05C20.4532 17.05 20.7113 16.9446 20.9017 16.7571C21.092 16.5696 21.1989 16.3152 21.1989 16.05C21.1296 14.7847 21.5708 13.5437 22.4264 12.5977C23.2819 11.6517 24.4825 11.0774 25.7661 11C27.0498 11.0774 28.2503 11.6517 29.1059 12.5977C29.9614 13.5437 30.4027 14.7847 30.3333 16.05C30.3333 18.953 27.3423 23.089 22.1276 27.396V27.4Z" fill="black"/>
<path d="M14 15L20.5 24L27 15" stroke="black" stroke-width="10" stroke-linecap="round" stroke-linejoin="round"/>
<path d="M11 19.5L14.5 24" stroke="black" stroke-width="2" stroke-linecap="round" stroke-linejoin="round"/>
<path d="M16 11.7949L20.3271 15.5065L25.0186 10.98" stroke="black" stroke-width="2" stroke-linecap="round" stroke-linejoin="round"/>
</svg>
