<svg width="50" height="50" viewBox="0 0 50 50" fill="none" xmlns="http://www.w3.org/2000/svg">
<path d="M19.7931 25C19.7931 22.1236 22.1242 19.7913 25.0006 19.7913C27.877 19.7913 30.2094 22.1236 30.2094 25C30.2094 27.8764 27.877 30.2088 25.0006 30.2088C22.1242 30.2088 19.7931 27.8764 19.7931 25ZM16.9774 25C16.9774 29.4313 20.5694 33.0233 25.0006 33.0233C29.4319 33.0233 33.0239 29.4313 33.0239 25C33.0239 20.5688 29.4319 16.9768 25.0006 16.9768C20.5694 16.9768 16.9774 20.5688 16.9774 25ZM31.4665 16.6586C31.4663 17.0295 31.5762 17.392 31.7821 17.7004C31.988 18.0089 32.2807 18.2493 32.6233 18.3914C32.9658 18.5334 33.3428 18.5707 33.7065 18.4985C34.0703 18.4263 34.4045 18.2479 34.6668 17.9857C34.9291 17.7236 35.1078 17.3896 35.1803 17.0259C35.2528 16.6622 35.2158 16.2852 35.074 15.9425C34.9323 15.5999 34.6921 15.3069 34.3838 15.1008C34.0755 14.8946 33.7131 14.7845 33.3422 14.7844H33.3415C32.8444 14.7846 32.3677 14.9821 32.0162 15.3335C31.6646 15.685 31.4669 16.1615 31.4665 16.6586ZM18.6881 37.7184C17.1647 37.649 16.3367 37.3953 15.7865 37.1809C15.057 36.8969 14.5365 36.5586 13.9892 36.0121C13.442 35.4656 13.1032 34.9456 12.8205 34.2161C12.606 33.6661 12.3522 32.8379 12.283 31.3145C12.2072 29.6675 12.1921 29.1728 12.1921 25.0001C12.1921 20.8275 12.2085 20.3341 12.283 18.6858C12.3524 17.1624 12.608 16.3358 12.8205 15.7841C13.1045 15.0546 13.4427 14.5341 13.9892 13.9869C14.5357 13.4396 15.0557 13.1009 15.7865 12.8181C16.3365 12.6036 17.1647 12.3499 18.6881 12.2806C20.3351 12.2049 20.8299 12.1898 25.0006 12.1898C29.1714 12.1898 29.6666 12.2061 31.315 12.2806C32.8384 12.35 33.665 12.6056 34.2166 12.8181C34.9461 13.1009 35.4666 13.4404 36.0139 13.9869C36.5611 14.5334 36.8986 15.0546 37.1826 15.7841C37.3971 16.3341 37.6509 17.1624 37.7201 18.6858C37.7959 20.3341 37.811 20.8275 37.811 25.0001C37.811 29.1728 37.7959 29.6661 37.7201 31.3145C37.6507 32.8379 37.3957 33.6659 37.1826 34.2161C36.8986 34.9456 36.5604 35.4661 36.0139 36.0121C35.4674 36.5581 34.9461 36.8969 34.2166 37.1809C33.6666 37.3954 32.8384 37.6491 31.315 37.7184C29.668 37.7941 29.1732 37.8093 25.0006 37.8093C20.828 37.8093 20.3346 37.7941 18.6881 37.7184ZM18.5587 9.46963C16.8954 9.54538 15.7587 9.80913 14.7661 10.1954C13.7381 10.5943 12.8679 11.1294 11.9982 11.9976C11.1286 12.8659 10.5949 13.7375 10.196 14.7655C9.80974 15.7588 9.54599 16.8948 9.47024 18.5581C9.39324 20.2241 9.37561 20.7568 9.37561 25C9.37561 29.2433 9.39324 29.7759 9.47024 31.4419C9.54599 33.1054 9.80974 34.2413 10.196 35.2345C10.5949 36.2619 11.1287 37.1345 11.9982 38.0024C12.8677 38.8703 13.7381 39.4046 14.7661 39.8046C15.7606 40.1909 16.8954 40.4546 18.5587 40.5304C20.2256 40.6061 20.7574 40.625 25.0006 40.625C29.2439 40.625 29.7765 40.6074 31.4425 40.5304C33.106 40.4546 34.2419 40.1909 35.2351 39.8046C36.2625 39.4046 37.1334 38.8706 38.003 38.0024C38.8726 37.1341 39.4052 36.2619 39.8052 35.2345C40.1915 34.2413 40.4565 33.1053 40.531 31.4419C40.6067 29.7746 40.6244 29.2433 40.6244 25C40.6244 20.7568 40.6067 20.2241 40.531 18.5581C40.4552 16.8946 40.1915 15.7581 39.8052 14.7655C39.4052 13.7381 38.8712 12.8673 38.003 11.9976C37.1347 11.128 36.2625 10.5943 35.2364 10.1954C34.2419 9.80913 33.1059 9.54413 31.4437 9.46963C29.7777 9.39388 29.2451 9.375 25.0019 9.375C20.7586 9.375 20.2256 9.39263 18.5587 9.46963Z" fill="black"/>
</svg>
