<svg width="37" height="36" viewBox="0 0 37 36" fill="none" xmlns="http://www.w3.org/2000/svg">
<g clip-path="url(#clip0)">
<path d="M12.2339 24.1694C18.8257 24.1694 24.1694 18.8257 24.1694 12.2339C24.1694 5.6421 18.8257 0.298401 12.2339 0.298401C5.64208 0.298401 0.298386 5.6421 0.298386 12.2339C0.298386 18.8257 5.64208 24.1694 12.2339 24.1694Z" stroke="#E71084" stroke-width="0.880242"/>
<path d="M12.2339 19.3952C16.1889 19.3952 19.3952 16.189 19.3952 12.2339C19.3952 8.27882 16.1889 5.0726 12.2339 5.0726C8.27879 5.0726 5.07257 8.27882 5.07257 12.2339C5.07257 16.189 8.27879 19.3952 12.2339 19.3952Z" stroke="#E71084" stroke-width="0.880242"/>
<path d="M12.2339 5.07259V0.298401" stroke="#E71084" stroke-width="0.880242"/>
<path d="M12.5323 24.4677V19.0968" stroke="#E71084" stroke-width="0.880242"/>
<path d="M23.8709 11.9355H19.0967" stroke="#E71084" stroke-width="0.880242"/>
<path d="M4.77419 11.9355H0" stroke="#E71084" stroke-width="0.880242"/>
<path d="M5.37098 10.7419L0.596786 9.5484" stroke="#E71084" stroke-width="0.880242"/>
<path d="M5.46374 9.29636L1.19357 7.16129" stroke="#E71084" stroke-width="0.880242"/>
<path d="M6.30509 8.09901L2.38708 5.37097" stroke="#E71084" stroke-width="0.880242"/>
<path d="M7.48524 7.02327L4.17744 3.58066" stroke="#E71084" stroke-width="0.880242"/>
<path d="M8.40789 5.89379L5.96774 1.79031" stroke="#E71084" stroke-width="0.880242"/>
<path d="M10.1239 5.22481L8.95161 0.596771" stroke="#E71084" stroke-width="0.880242"/>
<path d="M13.7258 5.37096L14.9193 0.596771" stroke="#E71084" stroke-width="0.880242"/>
<path d="M15.1714 5.46371L17.3065 1.19354" stroke="#E71084" stroke-width="0.880242"/>
<path d="M16.3687 6.30509L19.0967 2.38708" stroke="#E71084" stroke-width="0.880242"/>
<path d="M17.4445 7.48523L20.8871 4.17743" stroke="#E71084" stroke-width="0.880242"/>
<path d="M18.5739 8.40789L22.6774 5.96774" stroke="#E71084" stroke-width="0.880242"/>
<path d="M19.2429 10.1239L23.871 8.95163" stroke="#E71084" stroke-width="0.880242"/>
<path d="M19.0755 13.7258L23.8497 14.9194" stroke="#E71084" stroke-width="0.880242"/>
<path d="M18.9827 15.1714L23.2529 17.3064" stroke="#E71084" stroke-width="0.880242"/>
<path d="M18.1414 16.3687L22.0594 19.0968" stroke="#E71084" stroke-width="0.880242"/>
<path d="M16.9612 17.4445L20.269 20.8871" stroke="#E71084" stroke-width="0.880242"/>
<path d="M16.0385 18.5739L18.4787 22.6774" stroke="#E71084" stroke-width="0.880242"/>
<path d="M14.3226 19.2429L15.4948 23.871" stroke="#E71084" stroke-width="0.880242"/>
<path d="M10.7419 19.0755L9.5484 23.8497" stroke="#E71084" stroke-width="0.880242"/>
<path d="M9.29639 18.9827L7.16132 23.2529" stroke="#E71084" stroke-width="0.880242"/>
<path d="M8.09899 18.1414L5.37096 22.0594" stroke="#E71084" stroke-width="0.880242"/>
<path d="M7.02327 16.9613L3.58066 20.2691" stroke="#E71084" stroke-width="0.880242"/>
<path d="M5.89378 16.0385L1.7903 18.4787" stroke="#E71084" stroke-width="0.880242"/>
<path d="M5.22482 14.3226L0.596786 15.4948" stroke="#E71084" stroke-width="0.880242"/>
<path d="M21.5286 19.9538L20.7121 20.8244L35.5118 34.7048L36.3283 33.8342L21.5286 19.9538Z" stroke="#E71084" stroke-width="0.880242"/>
</g>
<defs>
<clipPath id="clip0">
<rect width="37" height="35.2097" fill="white"/>
</clipPath>
</defs>
</svg>
