<svg width="37" height="32" viewBox="0 0 37 32" fill="none" xmlns="http://www.w3.org/2000/svg">
<path d="M14.5129 17.2473C13.7152 18.4609 12.8704 19.6398 11.8625 20.7002C9.48797 23.1981 6.38917 23.8614 3.04582 23.6915C0.0440981 23.5387 0.0588289 28.1948 3.04582 28.3468C9.32726 28.6658 13.7673 25.9519 17.3021 21.3317C16.72 20.5729 16.1821 19.8086 15.6899 19.0721C15.2848 18.4668 14.8929 17.8481 14.5129 17.2473Z" fill="white"/>
<path d="M20.577 13.5428C20.8996 14.0501 21.2184 14.549 21.5399 15.038C22.1292 14.2244 22.7578 13.439 23.4652 12.7086C25.251 10.8654 27.2854 10.108 29.5191 9.89369C29.3774 10.0644 29.2398 10.2383 29.097 10.4082C28.2809 11.378 28.1432 12.7457 29.097 13.6999C29.9361 14.5392 31.571 14.6717 32.3887 13.6999C33.6479 12.2038 34.8508 10.6604 36.1101 9.16435C36.9302 8.34013 37.2441 6.96938 36.2291 5.86982L32.0398 1.33092C29.9998 -0.878939 26.7161 2.42077 28.748 4.62263L29.2918 5.21179C27.0068 5.37532 24.8065 5.95664 22.7748 7.27716C21.2569 8.26397 19.9805 9.53215 18.8418 10.9216C19.0705 11.2423 19.2989 11.5682 19.5237 11.9084C19.8831 12.4524 20.2357 13.0069 20.577 13.5428Z" fill="white"/>
<path d="M32.3892 18.5309C31.9949 18.063 31.4116 17.8509 30.8183 17.8509C30.1809 17.8509 29.532 18.0964 29.0975 18.5309C28.1437 19.4854 28.2814 20.853 29.0975 21.8226C29.2403 21.9926 29.378 22.1668 29.5197 22.3375C27.2859 22.1235 25.2511 21.3655 23.4658 19.5224C22.45 18.4739 21.593 17.3145 20.7884 16.1157C20.0086 14.9541 19.2788 13.755 18.5045 12.5822C18.3565 12.3582 18.2045 12.1431 18.0534 11.9263C14.5806 6.94456 10.2376 3.85876 4.03501 3.85876C3.71078 3.85876 3.3809 3.86731 3.04624 3.884C0.107835 4.03334 0.0461696 8.54262 2.9034 8.54262C2.95042 8.54262 2.99774 8.54121 3.04624 8.53886C3.36891 8.52256 3.68845 8.51402 4.00594 8.51402C6.98016 8.51402 9.71719 9.27352 11.8626 11.5308C13.1817 12.9189 14.2226 14.5088 15.2419 16.1157C15.7253 16.8777 16.2044 17.6427 16.7061 18.3932C17.1374 19.0385 17.5846 19.6795 18.0522 20.3046C19.3852 22.0856 20.8971 23.7332 22.7747 24.9539C24.8064 26.2745 27.0067 26.8558 29.2917 27.0189L28.7479 27.6082C27.1893 29.297 28.757 31.6309 30.493 31.6309C31.0206 31.6309 31.5641 31.4148 32.0396 30.9L36.2293 26.3613C37.2443 25.2616 36.9304 23.8908 36.1103 23.0667C34.8514 21.5699 33.6486 20.0273 32.3892 18.5309Z" fill="white"/>
</svg>
