<svg width="50" height="50" viewBox="0 0 50 50" fill="none" xmlns="http://www.w3.org/2000/svg">
<path fill-rule="evenodd" clip-rule="evenodd" d="M30.5578 37.3795C32.3052 38.144 32.9605 36.5422 32.9605 36.5422L37.5838 13.3163C37.5474 11.7509 35.436 12.6974 35.436 12.6974L9.5525 22.8542C9.5525 22.8542 8.31476 23.2911 8.42397 24.0555C8.53318 24.82 9.5161 25.1841 9.5161 25.1841L16.0325 27.3683C16.0325 27.3683 17.9983 33.8119 18.3987 35.0496C18.7628 36.251 19.0904 36.2874 19.0904 36.2874C19.4545 36.433 19.7821 36.1782 19.7821 36.1782L24.005 32.3557L30.5578 37.3795ZM31.6863 17.4299C31.6863 17.4299 32.5964 16.8839 32.56 17.4299C32.56 17.4299 32.7056 17.5027 32.2324 18.0124C31.7955 18.4492 21.4931 27.6959 20.1098 28.9337C20.0005 29.0065 19.9277 29.1157 19.9277 29.2613L19.5273 32.6833C19.4545 33.0474 18.9812 33.0838 18.872 32.7561L17.161 27.1499C17.0882 26.9314 17.161 26.6766 17.3794 26.531L31.6863 17.4299Z" fill="black"/>
</svg>
