<svg width="15" height="15" viewBox="0 0 15 15" fill="none" xmlns="http://www.w3.org/2000/svg">
<path d="M4.99421 7.17665L9.3286 11.511C9.34858 11.1264 9.36583 10.2776 9.21999 9.26062C8.95717 7.42769 8.28121 5.92174 7.26513 4.90573C6.24909 3.88968 4.74317 3.21369 2.91024 2.95086C1.54641 2.75528 0.484428 2.85298 0.439897 2.85729C0.221723 2.87815 0.049018 3.05085 0.0281586 3.26903C0.0238812 3.31356 -0.0738238 4.37551 0.121733 5.73937C0.384555 7.5723 1.06052 9.07825 2.0766 10.0943C3.09264 11.1103 4.59856 11.7863 6.43149 12.0491C7.10655 12.1459 7.70745 12.1709 8.14779 12.1709C8.37079 12.1709 8.55252 12.1644 8.68184 12.1577L4.34748 7.82337C4.16889 7.64481 4.16889 7.35524 4.34748 7.17662C4.52605 6.99808 4.81562 6.99808 4.99421 7.17665Z" fill="#329D29"/>
<path d="M14.9797 6.02944C14.9588 5.81127 14.7861 5.63857 14.5679 5.61771C14.4457 5.60605 11.5548 5.35099 9.87138 7.03444C9.80585 7.09998 9.74333 7.16745 9.6835 7.23645C9.88058 7.82578 10.0291 8.45924 10.1254 9.13081C10.1562 9.34585 10.1802 9.55342 10.1988 9.75176L11.3938 8.55683C11.5723 8.37826 11.8619 8.37826 12.0405 8.55683C12.2191 8.73539 12.2191 9.02496 12.0405 9.20358L10.2568 10.9873C10.2564 11.4534 10.2299 11.7574 10.2241 11.818C10.2138 11.9254 10.191 12.0289 10.1575 12.1276C11.1733 12.0337 12.5757 11.7133 13.5629 10.726C15.2463 9.0426 14.9914 6.15173 14.9797 6.02944Z" fill="#329D29"/>
</svg>
