<svg width="50" height="50" viewBox="0 0 50 50" fill="none" xmlns="http://www.w3.org/2000/svg">
<path fill-rule="evenodd" clip-rule="evenodd" d="M40.9019 17.2236C41.1337 16.451 40.9019 15.8832 39.799 15.8832H36.1523C35.225 15.8832 34.7978 16.3737 34.566 16.9147C34.566 16.9147 32.7114 21.4347 30.0842 24.3708C29.2343 25.2208 28.848 25.4909 28.3843 25.4909C28.1525 25.4909 27.817 25.2208 27.817 24.4482V17.2236C27.817 16.2963 27.548 15.8832 26.7751 15.8832H21.0446C20.4653 15.8832 20.1168 16.3135 20.1168 16.7214C20.1168 17.6005 21.4301 17.8032 21.5656 20.2756V25.6459C21.5656 26.8232 21.353 27.0368 20.8894 27.0368C19.6531 27.0368 16.6462 22.4962 14.8624 17.301C14.5129 16.2911 14.1623 15.8832 13.2303 15.8832H9.5836C8.54169 15.8832 8.33331 16.3737 8.33331 16.9147C8.33331 17.8805 9.5698 22.6712 14.0899 29.0071C17.1036 33.3336 21.3489 35.6795 25.2123 35.6795C27.5305 35.6795 27.817 35.1585 27.817 34.2612V30.9909C27.817 29.949 28.0366 29.7411 28.7704 29.7411C29.3116 29.7411 30.2387 30.0115 32.4025 32.0976C34.8749 34.5698 35.2823 35.6795 36.6733 35.6795H40.3199C41.3619 35.6795 41.8828 35.1585 41.5822 34.1304C41.2535 33.1057 40.073 31.6194 38.5065 29.857C37.6566 28.8524 36.3815 27.7706 35.9955 27.2298C35.4545 26.5344 35.6089 26.2254 35.9955 25.6076C35.9955 25.6076 40.4382 19.3488 40.9019 17.2239V17.2236Z" fill="black"/>
</svg>
